<?xml version="1.0" encoding="utf-8"?>
<!-- Generator: Adobe Illustrator 19.1.0, SVG Export Plug-In . SVG Version: 6.00 Build 0)  -->
<!DOCTYPE svg PUBLIC "-//W3C//DTD SVG 1.1//EN" "http://www.w3.org/Graphics/SVG/1.1/DTD/svg11.dtd">
<svg version="1.1" id="Layer_1" xmlns="http://www.w3.org/2000/svg" xmlns:xlink="http://www.w3.org/1999/xlink" x="0px" y="0px"
	 viewBox="0 0 100 100" style="enable-background:new 0 0 100 100;" xml:space="preserve">
<g>
	<path d="M62,36H38c-3.3,0-6,2.7-6,6v16c0,3.3,2.7,6,6,6h24c3.3,0,6-2.7,6-6V42C68,38.7,65.3,36,62,36z M56,62H38c-2.2,0-4-1.8-4-4
		V42c0-2.2,1.8-4,4-4h18V62z M66,58c0,2.2-1.8,4-4,4h-4V38h4c2.2,0,4,1.8,4,4V58z"/>
	<path d="M50,0C22.4,0,0,22.4,0,50c0,27.6,22.4,50,50,50s50-22.4,50-50C100,22.4,77.6,0,50,0z M78,44c0,0.6-0.4,1-1,1
		c-2.8,0-5,2.2-5,5c0,2.8,2.2,5,5,5c0.6,0,1,0.4,1,1v11c0,0.6-0.4,1-1,1H23c-0.6,0-1-0.4-1-1V56c0-0.6,0.4-1,1-1c2.8,0,5-2.2,5-5
		c0-2.8-2.2-5-5-5c-0.6,0-1-0.4-1-1V33c0-0.6,0.4-1,1-1h54c0.6,0,1,0.4,1,1V44z"/>
	<path d="M36,48c0,0.3,0.2,0.6,0.4,0.8l0,0l4.5,3.6l-1.8,5.3l0,0c0,0.1-0.1,0.2-0.1,0.3c0,0.6,0.4,1,1,1c0.2,0,0.4-0.1,0.6-0.2l0,0
		l4.4-3.5l4.4,3.5l0,0c0.2,0.1,0.4,0.2,0.6,0.2c0.6,0,1-0.4,1-1c0-0.1,0-0.2-0.1-0.3l0,0l-1.8-5.3l4.5-3.6l0,0
		c0.2-0.2,0.4-0.5,0.4-0.8c0-0.6-0.4-1-1-1h-5.3L46,41.7l0,0C45.8,41.3,45.4,41,45,41s-0.8,0.3-0.9,0.7l0,0L42.3,47H37
		C36.4,47,36,47.4,36,48z M43,49c0.4,0,0.8-0.3,0.9-0.7l0,0l1.1-3.2l1.1,3.2l0,0c0.1,0.4,0.5,0.7,0.9,0.7h3.1l-2.8,2.2L48,52
		l-0.9,0.3l0.9,2.8l-2.4-1.9l0,0C45.4,53.1,45.2,53,45,53s-0.4,0.1-0.6,0.2l0,0L42,55.1l0.9-2.8l0,0c0-0.1,0.1-0.2,0.1-0.3
		c0-0.3-0.2-0.6-0.4-0.8l0,0L39.9,49H43z"/>
</g>
</svg>
