<?xml version="1.0" encoding="utf-8"?>
<!-- Generator: Adobe Illustrator 19.1.0, SVG Export Plug-In . SVG Version: 6.00 Build 0)  -->
<!DOCTYPE svg PUBLIC "-//W3C//DTD SVG 1.1//EN" "http://www.w3.org/Graphics/SVG/1.1/DTD/svg11.dtd">
<svg version="1.1" id="Layer_1" xmlns="http://www.w3.org/2000/svg" xmlns:xlink="http://www.w3.org/1999/xlink" x="0px" y="0px"
	 viewBox="0 0 100 100" style="enable-background:new 0 0 100 100;" xml:space="preserve">
<g>
	<path d="M56,36.5c-1.2-1-2.9-1.5-5.2-1.5H42v14h8.9c2.2,0,3.9-0.8,5.2-1.9c1.2-1.1,1.8-3,1.8-5.4C57.9,39.3,57.3,37.5,56,36.5z"/>
	<path d="M50,0C22.4,0,0,22.4,0,50c0,27.6,22.4,50,50,50s50-22.4,50-50C100,22.4,77.6,0,50,0z M63.4,53.4c-2.7,2.3-6.6,3.6-11.6,3.6
		H42v16H32V27h20.4c4.6,0,8.3,1.1,11,3.5c2.7,2.4,4.1,6.2,4.1,11.2C67.5,47.1,66.1,51.1,63.4,53.4z"/>
</g>
</svg>
