<?xml version="1.0" encoding="utf-8"?>
<!-- Generator: Adobe Illustrator 19.1.0, SVG Export Plug-In . SVG Version: 6.00 Build 0)  -->
<!DOCTYPE svg PUBLIC "-//W3C//DTD SVG 1.1//EN" "http://www.w3.org/Graphics/SVG/1.1/DTD/svg11.dtd">
<svg version="1.1" id="Layer_1" xmlns="http://www.w3.org/2000/svg" xmlns:xlink="http://www.w3.org/1999/xlink" x="0px" y="0px"
	 viewBox="0 0 300 300" style="enable-background:new 0 0 300 300;" xml:space="preserve">
<path d="M150,0C67.2,0,0,67.2,0,150s67.2,150,150,150s150-67.2,150-150S232.8,0,150,0z M99.9,52.5c8.8-0.1,15.9,7,16,15.8
	c0,8.9-6.8,16-15.7,16.1c-8.7,0.1-16-7.1-16.1-15.8C84.1,59.9,91.2,52.6,99.9,52.5z M140.6,157.9c-3.9,1.7-7.7-0.3-9.2-4.9
	c-1.9-6-3.6-12.1-5.4-18.2c-2.3-7.8-4.6-15.5-6.9-23.4c-1.1,0-2.1,0-3.4,0c7.1,24.4,14.1,48.6,21.2,73.2c-6.7,0-13.1,0-19.8,0
	c0,1.2,0,2.2,0,3.1c0,17.2,0,34.5,0,51.7c0,6-5.3,9.6-10.7,7.4c-2.9-1.2-4.4-3.5-4.4-7.2c0-17.3,0-34.6,0-51.9c0-0.9,0-1.8,0-2.9
	c-1.4,0-2.8,0-4.4,0c0,0.9,0,1.8,0,2.6c0,17.2,0,34.3,0,51.5c0,5.5-2.7,8.5-7.4,8.5c-4.7,0-7.6-3.1-7.6-8.5c0-11.5,0-22.9,0-34.4
	c0-6.5,0-13,0-19.8c-6.5,0-12.9,0-19.8,0C70,160.1,77,135.9,84,111.6c-2.1-0.8-3.2-0.2-3.8,2.1c-3.7,12.8-7.5,25.7-11.3,38.5
	c-0.9,2.9-2.2,5.5-5.6,6.1c-5.4,1-9.2-3.6-7.6-9.3c3-10.1,6.1-20.2,9.1-30.3c1.4-4.7,2.8-9.3,4.2-14c3-9.9,9.6-15.5,19.9-16
	c7.8-0.4,15.6-0.3,23.4,0.2c9.1,0.5,15.2,5.9,18,14.2c5,15.1,9.4,30.3,14,45.5C145.5,152.8,143.9,156.5,140.6,157.9z M199.9,52.5
	c8.8,0,15.9,7.2,15.9,16c0,8.8-7.2,16-16,15.9c-8.9-0.1-15.7-7.1-15.7-16.1C184.2,59.6,191.2,52.5,199.9,52.5z M236.8,159
	c0,3.9-2.9,6.5-6.7,6.6c-3.8,0.1-6.6-2.4-6.9-6.3c-0.1-1-0.1-2.1-0.1-3.2c0-13.1,0-26.2,0-39.3c0-1,0-1.9,0-3c-1.1,0-1.9,0-2.9,0
	c0,1.1,0,2.1,0,3.2c0,39.8,0,79.6,0,119.5c0,1.7-0.2,3.4-0.7,5c-1.4,4-5.5,6.1-10.3,5.4c-3.8-0.5-6.9-3.8-7.3-7.7
	c-0.1-0.9-0.1-1.8-0.1-2.7c0-22.8,0-45.5,0-68.3c0-1,0-1.9,0-3.1c-1,0-1.8,0-2.9,0c0,1,0,1.9,0,2.9c0,22.8,0,45.7,0,68.5
	c0,5.4-2.3,8.8-6.7,10.1c-5.9,1.7-11.3-2-11.8-8.1c-0.1-1-0.1-1.9-0.1-2.9c0-39.5,0-79,0-118.5c0-1,0-2.1,0-3.2c-1.1,0-2,0-3.2,0
	c0,1,0,2,0,2.9c0,13.8,0,27.6,0,41.4c0,2.8-0.9,5.1-3.5,6.5c-2.4,1.2-4.9,1.2-7.2-0.2c-2.1-1.2-3.1-3.1-3.1-5.5
	c0-17.1-0.1-34.3,0.1-51.4c0.1-9.8,8.6-18.6,18.6-18.9c12.2-0.4,24.4-0.3,36.5,0.2c9.9,0.4,18.2,9.2,18.3,19.1
	C237,125,236.8,142,236.8,159z"/>
</svg>
