<?xml version="1.0" encoding="utf-8"?>
<!-- Generator: Adobe Illustrator 19.1.0, SVG Export Plug-In . SVG Version: 6.00 Build 0)  -->
<!DOCTYPE svg PUBLIC "-//W3C//DTD SVG 1.1//EN" "http://www.w3.org/Graphics/SVG/1.1/DTD/svg11.dtd">
<svg version="1.1" id="Layer_1" xmlns="http://www.w3.org/2000/svg" xmlns:xlink="http://www.w3.org/1999/xlink" x="0px" y="0px"
	 viewBox="0 0 100 100" style="enable-background:new 0 0 100 100;" xml:space="preserve">
<g>
	<circle cx="61.2" cy="61.2" r="3.8"/>
	<path d="M45,30h10c1.4,0,2.5-1.1,2.5-2.5S56.4,25,55,25H45c-1.4,0-2.5,1.1-2.5,2.5S43.6,30,45,30z"/>
	<circle cx="38.8" cy="61.2" r="3.8"/>
	<path d="M65,35H35c-1.4,0-3,1.1-3,2.5v10c0,1.4,1.6,2.5,3,2.5h30c1.4,0,2-1.1,2-2.5v-10C67,36.1,66.4,35,65,35z"/>
	<path d="M50,0C22.4,0,0,22.4,0,50c0,27.6,22.4,50,50,50s50-22.4,50-50C100,22.4,77.6,0,50,0z M62.5,85l-1.2-2H38.8l-1.2,2H30l5-10
		h7.5l-1.2,3h17.5l-1.2-3H65l5,10H62.5z M72,67.5c0,2.8-1.7,5.5-4.5,5.5h-35c-2.8,0-5.5-2.7-5.5-5.5V25c0-2.8,2.7-5,5.5-5H40v-2.5
		c0-1.4,1.1-2.5,2.5-2.5H45c1.4,0,2,1.1,2,2.5V20h5v-2.5c0-1.4,1.6-2.5,3-2.5h2.5c1.4,0,2.5,1.1,2.5,2.5V20h7.5c2.8,0,4.5,2.2,4.5,5
		V67.5z"/>
</g>
</svg>
