<?xml version="1.0" encoding="utf-8"?>
<!-- Generator: Adobe Illustrator 19.1.0, SVG Export Plug-In . SVG Version: 6.00 Build 0)  -->
<!DOCTYPE svg PUBLIC "-//W3C//DTD SVG 1.1//EN" "http://www.w3.org/Graphics/SVG/1.1/DTD/svg11.dtd">
<svg version="1.1" id="Layer_1" xmlns="http://www.w3.org/2000/svg" xmlns:xlink="http://www.w3.org/1999/xlink" x="0px" y="0px"
	 viewBox="0 0 100 100" style="enable-background:new 0 0 100 100;" xml:space="preserve">
<g>
	<path d="M50,0C22.4,0,0,22.4,0,50c0,27.6,22.4,50,50,50s50-22.4,50-50C100,22.4,77.6,0,50,0z M32.8,62.4l-1.9-7H24l-1.7,7h-5.7
		l7.4-25h7.2l7.5,25H32.8z M54.8,42.4h-6v20h-6v-20h-6v-5h18V42.4z M78,62.4l-0.4-9.7c-0.1-2.9-0.2-6.3-0.2-10.3h-0.1
		c-0.8,4-1.8,6.6-2.7,9.5l-3,9.5h-4.3L64.8,52c-0.8-2.8-1.6-5.5-2.2-9.5h-0.1c-0.1,4-0.3,7.4-0.4,10.4l-0.4,9.6h-5.1l1.5-25h7.3
		l2.4,8.2c0.8,2.8,1.5,5.8,2.1,8.8H70c0.7-3,1.5-6.1,2.3-8.8l2.6-8.2h7.2l1.3,25H78z"/>
	<path d="M27.4,42.4L27.4,42.4c-0.4,1-0.8,2.9-1.2,4.3l-1.4,4.7h5.4l-1.5-4.7C28.2,45.3,27.8,43.4,27.4,42.4z"/>
</g>
</svg>
