<?xml version="1.0" encoding="utf-8"?>
<!-- Generator: Adobe Illustrator 19.1.0, SVG Export Plug-In . SVG Version: 6.00 Build 0)  -->
<!DOCTYPE svg PUBLIC "-//W3C//DTD SVG 1.1//EN" "http://www.w3.org/Graphics/SVG/1.1/DTD/svg11.dtd">
<svg version="1.1" id="Layer_1" xmlns="http://www.w3.org/2000/svg" xmlns:xlink="http://www.w3.org/1999/xlink" x="0px" y="0px"
	 viewBox="0 0 100 100" style="enable-background:new 0 0 100 100;" xml:space="preserve">
<style type="text/css">
	.st0{fill:#FFFFFF;}
</style>
<g>
	<path d="M63.1,33.9c-0.4-1.2-1-1.9-2.3-1.9H50h0H39.2c-1.4,0-1.9,0.7-2.3,1.9L33.8,42H50h0h16.2L63.1,33.9z"/>
	<path d="M67.1,46.2c-1.9,0-3.5,1.6-3.5,3.6c0,2,1.6,3.6,3.5,3.6c1.9,0,3.4-1.6,3.5-3.6C70.6,47.8,69,46.2,67.1,46.2z"/>
	<path d="M32.9,46.2c-1.9,0-3.5,1.6-3.5,3.6c0,2,1.5,3.6,3.5,3.6c1.9,0,3.5-1.6,3.5-3.6C36.3,47.8,34.8,46.2,32.9,46.2z"/>
	<path d="M50,0C22.4,0,0,22.4,0,50c0,27.6,22.4,50,50,50s50-22.4,50-50C100,22.4,77.6,0,50,0z M75,61h-4v4.8c0,5.3-8,5.2-8,0V61H50
		H36v4.8c0,5.2-7,5.3-7,0V61h-4V48c0-3.6,2.9-5.5,4.5-5.7l4.1-10.5c0.8-2,2.5-3.7,5.6-3.7h5.9H55h5.8c3.2,0,4.8,1.7,5.6,3.7
		l4.1,10.6c1.6,0.2,4.5,2.1,4.5,5.7V61z"/>
</g>
</svg>
